# xmcd
#
# Track frame offsets:
#	150
#	11607
#	26593
#	40855
#	55054
#	70060
#	86259
#	101774
#	114531
#	127714
#	141843
#	155064
#	170149
#	184321
#	190213
#	202869
#	217112
#	231491
#	247351
#	258448
#
# Disc length: 3644 seconds
#
# Revision: 0
# Processed by: cddbd v1.5.2PL0 Copyright (c) Steve Scherf et al.
# Submitted via: EasyCDDAExtractor 16.0.6.1
#
DISCID=240e3a14
DTITLE=Περπινιάδης Βαγγέλης - Τραγούδια 45 στροφές-Περπινιάδης Βαγγέλης 3
DYEAR=2000
DGENRE=Λαϊκή
TTITLE0=Περπινιάδης Βαγγέλης-Καλάκη Ρούλα - Τώρα που σε βρήκα [1963, Γ. Μανισα
TTITLE0=λής-Κ. Ψυχογιός]
TTITLE1=Περπινιάδης Βαγγέλης-Λαμπράκη Χαρούλα - Δεν σού μοιάζει καμμιά [1963, 
TTITLE1=Μπάμπης Μπακάλης]
TTITLE2=Περπινιάδης ΒαγγέληςᾹντωνάτου Νίτσα - Σαν το καμένο το δενδρί [1963, Β
TTITLE2=αγγέλης Σούκας]
TTITLE3=Περπινιάδης Βαγγέλης - Παραπονιάρικό μου [1973, Αναστάσιος Κουλούρης-Δ
TTITLE3=ημήτρης Γκούτης]
TTITLE4=Περπινιάδης Βαγγέλης-Νόρμα Ρία - Κι όμως μετάνοιωσα [1965, Βασίλης Βασ
TTITLE4=ιλειάδης-Πυθαγόρας]
TTITLE5=Περπινιάδης Βαγγέλης-Νόρμα Ρία - Τι θέλεις από μένα τον αλήτη [1964, Β
TTITLE5=αγγέλης Περπινιάδης-Γ. Ροβερτάκης]
TTITLE6=Περπινιάδης Βαγγέλης - Σε τι έχω αμαρτήσει [1973, Βαγγέλης Σούκας]
TTITLE7=Περπινιάδης Βαγγέλης-Καλάκη Ρούλα - Σαν νύχτα χειμωνιάτικη [1962, Θεόδ
TTITLE7=ωρος Δερβενιώτης-Κώστας Βίρβος]
TTITLE8=Περπινιάδης Βαγγέλης-Νόρμα Ρία - Να στο πληρώσει ο Θεός [1963, Βαγγέλη
TTITLE8=ς Περπινιάδης-Δημήτρης Γκούτης]
TTITLE9=Περπινιάδης Βαγγέλης-Νόρμα Ρία - Κάψε με και 'συ [1962, Γ. Μανισαλής-Κ
TTITLE9=ώστας Βίρβος]
TTITLE10=Περπινιάδης Βαγγέλης - Πώς να κάνω υπομονή [1963, Γ. Μανισαλής-Δημήτρ
TTITLE10=ης Τζάρας]
TTITLE11=Περπινιάδης Βαγγέλης-Νόρμα Ρία - Γλυκό μου κοριτσάκι [1963, Βαγγέλης 
TTITLE11=Περπινιάδης]
TTITLE12=Περπινιάδης Βαγγέλης-Καλάκη Ρούλα - Είναι ο πόνος μου ένα βουνό [1963
TTITLE12=, Γ. Μανισαλής-Κ. Ψυχογιός]
TTITLE13=Περπινιάδης Βαγγέλης - Η κοινωνία μάς κατακρίνει [1960, Χρήστος Κολοκ
TTITLE13=οτρώνης-Βασίλης Καραπατάκης]
TTITLE14=Περπινιάδης Βαγγέλης-Καλάκη Ρούλα - Στην Ανατολή, στην Δύση [1963, Γ.
TTITLE14=Μανισαλής-Κώστας Βίρβος]
TTITLE15=Περπινιάδης Βαγγέλης - Εμπόδιο να μη βρεθεί στον δρόμο σου [1973, Βαγ
TTITLE15=γέλης Σούκας]
TTITLE16=Περπινιάδης Βαγγέλης - Έχω μαράζι στην καρδιά [1963, Σπύρος Περιστέρη
TTITLE16=ς-Γ. Ηλιάδης]
TTITLE17=Περπινιάδης Βαγγέλης-Ζαγοραίος Σπύρος - Δεν αντέχω μακριά σου [1975, 
TTITLE17=Βαγγέλης Περπινιάδης]
TTITLE18=Περπινιάδης Βαγγέλης-Νόρμα Ρία-Περπινιάδης Στελλάκης του Β. - Η Κοκό 
TTITLE18=[1968, Μπάμπης Μπακάλης-Νίκος Κομπορούζος]
TTITLE19=Περπινιάδης Βαγγέλης - Αντιλαλούνε οι στεναγμοί [1965, Μπάμπης Μπακάλ
TTITLE19=ης]
EXTD=
EXTT0=
EXTT1=
EXTT2=
EXTT3=
EXTT4=
EXTT5=
EXTT6=
EXTT7=
EXTT8=
EXTT9=
EXTT10=
EXTT11=
EXTT12=
EXTT13=
EXTT14=
EXTT15=
EXTT16=
EXTT17=
EXTT18=
EXTT19=
PLAYORDER=
